<?xml version="1.0" encoding="utf-8"?>
<!-- Generator: Adobe Illustrator 25.4.1, SVG Export Plug-In . SVG Version: 6.00 Build 0)  -->
<svg version="1.1" id="Layer_1" xmlns="http://www.w3.org/2000/svg" xmlns:xlink="http://www.w3.org/1999/xlink" x="0px" y="0px"
	 viewBox="0 0 50 50" style="enable-background:new 0 0 50 50;" xml:space="preserve">
<style type="text/css">
	.st0{fill:#ffffff;}
</style>
<path class="st0" d="M25,5c5.6,0,11.1,0,16.7,0C44.4,5,45,5.6,45,8.3c0,11.1,0,22.3,0,33.4c0,2.6-0.7,3.3-3.3,3.3c-2.5,0-5,0-7.4,0
	c-1.1,0-1.7-0.2-1.6-1.5c0.1-4.2,0.1-8.5,0-12.7c0-1.1,0.4-1.4,1.5-1.4c3.6-0.1,3.6-0.1,4.1-3.6c0.3-2.3,0.3-2.2-2-2.3
	c-4.1-0.1-3.6,0.7-3.6-3.7c0-2.4,0.7-3,3-3.1c3.1-0.1,3-0.1,3.2-3.2c0.1-1.9-0.6-2.5-2.3-2.4c-0.7,0-1.3-0.1-2-0.1
	c-5.3,0.1-7.9,2.7-8.1,7.9c0,0.2,0,0.4,0,0.5c-0.1,3.7-0.1,3.8-3.9,4c-1,0.1-1.4,0.4-1.4,1.4c-0.2,4.3-0.3,4.3,4,4.5
	c0.9,0.1,1.3,0.4,1.3,1.3c0,4.4,0,8.7,0,13.1c0,0.9-0.4,1.3-1.3,1.3c-5.8,0-11.6,0-17.4,0C5.8,45,5,44.1,5,42.2c0-11.5,0-23,0-34.5
	C5,5.6,5.7,5,7.9,5C13.6,5,19.3,5,25,5z"/>
</svg>
