<?xml version="1.0" encoding="utf-8"?>
<!-- Generator: Adobe Illustrator 25.4.1, SVG Export Plug-In . SVG Version: 6.00 Build 0)  -->
<svg version="1.1" id="Layer_1" xmlns="http://www.w3.org/2000/svg" xmlns:xlink="http://www.w3.org/1999/xlink" x="0px" y="0px"
	 viewBox="0 0 50 50" style="enable-background:new 0 0 50 50;" xml:space="preserve">
<style type="text/css">
	.st0{fill:#020202;}
</style>
<path id="search" class="st0" d="M31,34.3c-9.4,5.9-18.5,2.6-23.2-4.1c-4.3-6.1-3.5-15.1,2-20.5C15.4,4.1,24.3,3.5,30.5,8
	c6.7,4.9,9.6,14.1,3.9,22.8c4.2,2,6.7,5.8,9.9,8.9c1.4,1.3,0.2,2.6-0.9,3.6c-1.1,1.1-2.2,2.6-3.8,1.1c-2.7-2.5-5.3-5.1-7.7-7.7
	C31.4,36,31.3,35.2,31,34.3z M11.1,21.2c0,5.5,4.4,10,9.9,10c5.5,0.1,10.2-4.7,10.1-10.1c-0.1-5.5-4.6-9.9-10.1-9.8
	C15.5,11.2,11.1,15.6,11.1,21.2z"/>
</svg>
