<?xml version="1.0" encoding="utf-8"?>
<!-- Generator: Adobe Illustrator 25.4.1, SVG Export Plug-In . SVG Version: 6.00 Build 0)  -->
<svg version="1.1" id="Layer_1" xmlns="http://www.w3.org/2000/svg" xmlns:xlink="http://www.w3.org/1999/xlink" x="0px" y="0px"
	 viewBox="0 0 50 50" style="enable-background:new 0 0 50 50;" xml:space="preserve">
<style type="text/css">
	.st0{fill:#263238;}
</style>
<path class="st0" d="M31.3,34.8C21.5,41,11.9,37.5,7,30.5C2.5,24.1,3.3,14.7,9.1,9C15,3.2,24.3,2.5,30.8,7.2c7,5.1,10,14.8,4.1,23.9
	c4.4,2.1,7,6.1,10.4,9.3c1.5,1.4,0.2,2.7-0.9,3.8c-1.1,1.1-2.3,2.7-4,1.1c-2.8-2.6-5.5-5.3-8.1-8.1C31.7,36.6,31.6,35.7,31.3,34.8z
	 M10.5,21.1c0,5.8,4.6,10.5,10.4,10.5c5.8,0.1,10.7-4.9,10.6-10.6c-0.1-5.8-4.8-10.4-10.6-10.3C15.1,10.6,10.5,15.2,10.5,21.1z"/>
</svg>
