<?xml version="1.0" encoding="utf-8"?>
<!-- Generator: Adobe Illustrator 25.4.1, SVG Export Plug-In . SVG Version: 6.00 Build 0)  -->
<svg version="1.1" id="Layer_1" xmlns="http://www.w3.org/2000/svg" xmlns:xlink="http://www.w3.org/1999/xlink" x="0px" y="0px"
	 viewBox="0 0 50 50" style="enable-background:new 0 0 50 50;" xml:space="preserve">
<path id="setting" d="M42.2,28.9c-2.5-1.3-2.4-6.4,0-8c0.8-0.5,1.5-1.2,2.8-2.1c-1.9-2.7-3.6-5.2-5.3-7.3c-0.2-0.2-1.2-0.2-1.4,0
	c-2.5,2.4-4.8,0.8-6.9-0.6c-0.6-0.4-1.2-1.3-1.3-2c-0.4-3.8-0.4-4-4.4-4c-1.6,0-3.3,0.1-4.8,0.4c-0.6,0.1-1.5,0.9-1.4,1.3
	c0.7,3.3-1.5,4.6-4,5.6c-0.7,0.3-1.9,0.4-2.7,0.1c-3.2-1.5-3.3-1.6-5.2,1.4c-0.9,1.4-1.7,2.9-2.3,4.4c-0.2,0.6,0.1,2,0.5,2.1
	c3.3,1.1,3.1,3.7,2.9,6.2c-0.1,0.8-0.6,1.8-1.2,2.3c-2.9,2-3,2-1.3,5.1c0.8,1.4,1.7,2.8,2.9,4.1c0.4,0.4,1.7,0.9,2,0.6
	c2.5-2.4,4.8-0.8,6.9,0.6c0.6,0.4,1.2,1.3,1.3,2c0.4,3.8,0.4,4,4.4,4c1.6,0,3.3-0.1,4.8-0.4c0.6-0.1,1.5-0.9,1.4-1.3
	c-0.7-3.3,1.5-4.6,4-5.6c0.7-0.3,1.9-0.4,2.7-0.1c3.2,1.5,3.2,1.5,5.2-1.4c0.7-1,1.3-2.1,1.9-3.2C44.7,31.2,44.4,30,42.2,28.9z
	 M24.7,31.6c-3.6,0-6.8-3.1-6.8-6.7c0-3.5,3.1-6.5,6.5-6.6c3.7-0.2,6.9,2.9,7,6.5C31.5,28.4,28.4,31.5,24.7,31.6z"/>
</svg>
