<?xml version="1.0" encoding="utf-8"?>
<!-- Generator: Adobe Illustrator 25.4.1, SVG Export Plug-In . SVG Version: 6.00 Build 0)  -->
<svg version="1.1" id="Layer_1" xmlns="http://www.w3.org/2000/svg" xmlns:xlink="http://www.w3.org/1999/xlink" x="0px" y="0px"
	 viewBox="0 0 50 50" style="enable-background:new 0 0 50 50;" xml:space="preserve">
<style type="text/css">
	.st0{fill:#263238;}
</style>
<path class="st0" d="M44.6,18.9c-1.2,0.9-1.9,1.6-2.7,2.1c-2.4,1.6-2.5,6.7,0,8c2.1,1.1,2.4,2.3,1.3,4.2c-0.6,1.1-1.2,2.2-1.9,3.2
	c-2,2.9-2,2.9-5.1,1.4c-0.7-0.3-1.9-0.2-2.6,0.1c-2.4,1-4.6,2.3-3.9,5.6c0.1,0.4-0.8,1.2-1.4,1.3c-1.5,0.3-3.1,0.4-4.7,0.4
	c-3.9,0-3.9-0.2-4.3-4c-0.1-0.7-0.7-1.6-1.3-2c-2.1-1.4-4.3-3-6.8-0.6c-0.3,0.3-1.6-0.2-2-0.6c-1.1-1.3-2-2.7-2.8-4.1
	c-1.6-3.1-1.5-3.1,1.3-5.1c0.6-0.5,1.1-1.5,1.2-2.3c0.2-2.5,0.4-5.1-2.8-6.2c-0.4-0.1-0.7-1.5-0.5-2.1c0.6-1.5,1.4-3,2.3-4.4
	c1.9-3,2-2.9,5.1-1.4c0.7,0.3,1.9,0.2,2.6-0.1c2.4-1,4.6-2.3,3.9-5.6c-0.1-0.4,0.8-1.2,1.4-1.3C22.4,5.1,24,5,25.6,5
	c3.9,0,3.9,0.2,4.3,4c0.1,0.7,0.7,1.6,1.3,2c2.1,1.4,4.3,3,6.8,0.6c0.2-0.2,1.2-0.2,1.4,0C41.1,13.7,42.7,16.2,44.6,18.9z
	 M31.3,24.9c-0.1-3.6-3.3-6.7-6.9-6.5C21,18.5,18,21.5,18,25c0,3.6,3.2,6.7,6.7,6.7C28.3,31.6,31.4,28.5,31.3,24.9z"/>
</svg>
