<?xml version="1.0" encoding="utf-8"?>
<!-- Generator: Adobe Illustrator 25.4.1, SVG Export Plug-In . SVG Version: 6.00 Build 0)  -->
<svg version="1.1" id="Layer_1" xmlns="http://www.w3.org/2000/svg" xmlns:xlink="http://www.w3.org/1999/xlink" x="0px" y="0px"
	 viewBox="0 0 50 50" style="enable-background:new 0 0 50 50;" xml:space="preserve">
<style type="text/css">
	.st0{fill:#FFFFFF;}
</style>
<path id="twitter" class="st0" d="M44.5,8.9c-0.5,1.9-1.6,3-2.9,4.2c1.3,0.3,2.2-0.5,3.4-0.5c-0.3,1.2-1,1.9-1.8,2.5
	C42,16,41.6,17,41.5,18.5c-0.4,10.3-6.7,18.8-16.3,22.3C18.8,43,10.5,42.1,5,38.4c2.1-0.2,4.1-0.1,6-0.7s3.8-1.3,5.4-2.7
	c-0.3-0.6-0.9-0.4-1.3-0.6c-2.3-0.6-4-1.9-5.2-4.1c-0.6-1-0.9-1.7,0.8-1.6c0.3,0,0.8,0.1,1.1-0.4c-0.8-0.5-1.7-1-2.4-1.6
	c-1.7-1.3-2.8-3.1-3.1-5.3c-0.2-1,0.1-1.5,1.2-0.9c0.5,0.3,1,0.4,1.7,0.2c-0.5-0.7-1.1-1.4-1.6-2.1c-1.5-2.3-1.9-4.9-1-7.6
	c0.5-1,0.9-1,1.8-0.1c3.8,4.3,8.5,6.7,14,7.6c2.2,0.4,2.2,0.4,2.3-1.9c0.1-3.3,1.7-5.8,4.5-7.4c2.8-1.5,5.7-1.5,8.2,0.4
	c1.8,1.4,3.4,1,5.1,0.3C43.1,9.6,43.6,9.3,44.5,8.9z"/>
</svg>
